<?xml version="1.0" standalone="no"?>
<!DOCTYPE svg PUBLIC "-//W3C//DTD SVG 20010904//EN" "http://www.w3.org/TR/2001/REC-SVG-20010904/DTD/svg10.dtd">
<svg version="1.0" xmlns="http://www.w3.org/2000/svg" width="1000.000000pt" height="425.000000pt" viewBox="0 0 1000.000000 425.000000" preserveAspectRatio="xMidYMid meet">

    <g transform="translate(0.000000,425.000000) scale(0.100000,-0.100000)" fill="current" stroke="current">
        <path d="M7495 3419 c-38 -22 -64 -52 -70 -80 -15 -69 -9 -76 298 -336 161
-135 293 -249 295 -253 2 -7 -48 -50 -163 -140 -17 -14 -58 -47 -90 -75 -68
-59 -75 -65 -156 -130 -34 -27 -82 -67 -107 -88 -37 -32 -46 -36 -60 -25 -9 7
-146 122 -304 256 -158 133 -299 247 -314 252 -97 37 -194 -84 -136 -172 9
-15 141 -131 292 -258 151 -128 276 -238 278 -244 1 -7 -26 -35 -60 -61 -35
-27 -68 -54 -74 -60 -6 -5 -55 -46 -109 -90 -55 -44 -117 -96 -140 -115 -22
-20 -58 -49 -80 -65 -63 -47 -115 -101 -116 -121 -4 -65 15 -109 56 -128 56
-27 97 -21 146 22 24 21 64 53 89 72 25 19 47 37 50 40 11 11 153 130 270 225
68 55 130 106 137 113 7 8 19 12 26 9 27 -11 547 -459 542 -467 -3 -5 -48 -44
-101 -87 -52 -43 -115 -94 -138 -113 -24 -19 -74 -60 -112 -91 -38 -31 -80
-66 -93 -78 -13 -12 -43 -36 -67 -54 -72 -55 -87 -96 -60 -162 16 -37 60 -65
104 -65 32 0 97 40 169 104 46 39 65 55 207 170 34 27 63 52 66 55 3 3 28 24
55 46 28 22 66 54 85 72 53 50 76 59 97 41 16 -13 333 -281 536 -451 54 -46
74 -57 103 -57 89 0 146 80 115 162 -5 13 -140 133 -300 268 l-291 245 37 34
c21 18 61 51 88 73 28 22 73 60 100 83 85 72 178 149 225 185 24 19 58 47 74
63 17 15 36 27 43 27 7 0 151 -117 320 -260 279 -236 311 -260 344 -260 95 0
161 123 99 187 -10 10 -142 122 -293 248 -152 127 -276 235 -276 242 -1 12 4
16 139 123 45 36 121 99 169 140 48 41 113 95 145 120 120 93 149 141 122 204
-20 49 -70 79 -119 71 -36 -5 -66 -28 -332 -250 -22 -18 -59 -48 -82 -67 -23
-18 -84 -68 -137 -111 l-96 -78 -273 231 c-149 127 -273 234 -274 238 -1 4 32
34 73 67 42 33 110 89 153 125 42 36 90 77 107 90 132 105 226 185 239 203 31
44 11 131 -37 154 -67 33 -102 23 -199 -59 -62 -52 -281 -231 -359 -294 -21
-17 -66 -55 -100 -84 -55 -48 -62 -51 -78 -38 -9 8 -148 126 -308 261 -246
208 -298 247 -330 252 -22 3 -48 0 -59 -6z m995 -1064 c293 -246 266 -220 250
-240 -8 -9 -70 -62 -139 -117 -69 -56 -130 -106 -136 -112 -5 -6 -59 -52 -120
-101 -60 -49 -119 -98 -130 -107 -10 -10 -22 -17 -26 -16 -15 6 -549 461 -549
468 0 4 24 26 53 48 28 21 64 50 78 63 14 13 95 80 180 149 84 69 176 144 203
168 l48 43 27 -24 c14 -13 132 -113 261 -222z" />
        <path d="M998 2890 c-375 -67 -649 -340 -729 -725 -23 -110 -25 -275 -4 -364
50 -213 203 -361 430 -418 50 -12 111 -17 215 -17 152 0 247 15 359 56 l54 20
-7 82 c-4 44 -9 97 -12 117 l-6 36 -57 -23 c-134 -54 -340 -59 -447 -10 -174
80 -239 261 -185 520 50 243 189 411 388 469 130 39 270 31 393 -22 l65 -28
56 116 56 116 -31 16 c-92 49 -156 62 -326 65 -91 1 -186 -1 -212 -6z" />
        <path d="M1711 2287 c-58 -325 -117 -661 -131 -744 l-27 -153 462 0 462 0 17
103 c9 57 20 113 23 125 l5 22 -301 0 c-185 0 -301 4 -301 10 0 5 47 277 105
603 58 327 105 602 105 611 0 14 -19 16 -157 16 l-158 0 -104 -593z" />
        <path d="M2925 2868 c-2 -7 -59 -323 -125 -703 -67 -379 -125 -709 -130 -732
l-7 -43 487 0 488 0 16 93 c9 50 19 104 22 120 l6 27 -326 0 c-254 0 -326 3
-326 13 0 12 56 334 65 375 l5 22 293 0 292 0 21 120 20 120 -294 0 -294 0 6
28 c9 40 56 306 56 315 0 4 146 7 324 7 l325 0 10 53 c17 85 31 170 31 184 0
19 -958 19 -965 1z" />
        <path d="M4150 2871 c0 -11 -246 -1408 -256 -1453 l-6 -28 160 0 160 0 15 83
c8 45 30 169 49 275 l33 193 89 -3 89 -3 93 -269 c51 -148 95 -271 97 -273 2
-2 85 -2 184 -1 l180 3 -124 290 c-67 159 -123 295 -123 301 0 7 9 15 20 19
42 13 168 105 208 151 54 62 107 167 122 241 17 82 8 206 -19 270 -27 62 -102
136 -167 164 -93 42 -163 49 -491 49 -189 0 -313 -4 -313 -9z m576 -262 c68
-33 98 -91 90 -171 -16 -168 -120 -245 -348 -255 -71 -4 -118 -2 -118 3 0 12
68 399 76 433 l5 24 123 -5 c105 -4 131 -9 172 -29z" />
        <path d="M5847 2728 c-299 -542 -717 -1307 -723 -1321 -6 -16 7 -17 158 -17
l165 0 87 170 87 170 268 0 268 0 28 -170 28 -170 169 0 169 0 -7 38 c-4 20
-68 354 -143 742 l-137 705 -166 3 -166 2 -85 -152z m202 -295 c7 -60 26 -185
42 -280 16 -94 29 -174 29 -177 0 -3 -86 -6 -190 -6 l-190 0 142 284 c79 156
146 285 149 285 3 1 12 -47 18 -106z" />
    </g>
</svg>